<?xml version="1.0" encoding="UTF-8" standalone="no"?>
<!DOCTYPE svg PUBLIC "-//W3C//DTD SVG 1.1//EN"
 "http://www.w3.org/Graphics/SVG/1.1/DTD/svg11.dtd">
<!-- Generated by graphviz version 9.0.0 (0)
 -->
<!-- Title: dependency&#45;cruiser output Pages: 1 -->
<svg width="740pt" height="1153pt"
 viewBox="0.00 0.00 739.75 1153.00" xmlns="http://www.w3.org/2000/svg" xmlns:xlink="http://www.w3.org/1999/xlink">
<g id="graph0" class="graph" transform="scale(1 1) rotate(0) translate(4 1149)">
<title>dependency&#45;cruiser output</title>
<polygon fill="white" stroke="none" points="-4,4 -4,-1149 735.75,-1149 735.75,4 -4,4"/>
<g id="clust1" class="cluster">
<title>cluster_..</title>
<path fill="#ffffff" stroke="black" stroke-width="2" d="M395,-921C395,-921 488.5,-921 488.5,-921 494.5,-921 500.5,-927 500.5,-933 500.5,-933 500.5,-1125 500.5,-1125 500.5,-1131 494.5,-1137 488.5,-1137 488.5,-1137 395,-1137 395,-1137 389,-1137 383,-1131 383,-1125 383,-1125 383,-933 383,-933 383,-927 389,-921 395,-921"/>
<text text-anchor="middle" x="441.75" y="-1124.45" font-family="Helvetica,sans-Serif" font-weight="bold" font-size="9.00">..</text>
</g>
<g id="clust2" class="cluster">
<title>cluster_../..</title>
<path fill="#ffffff" stroke="black" stroke-width="2" d="M406.5,-1020C406.5,-1020 477,-1020 477,-1020 483,-1020 489,-1026 489,-1032 489,-1032 489,-1098 489,-1098 489,-1104 483,-1110 477,-1110 477,-1110 406.5,-1110 406.5,-1110 400.5,-1110 394.5,-1104 394.5,-1098 394.5,-1098 394.5,-1032 394.5,-1032 394.5,-1026 400.5,-1020 406.5,-1020"/>
<text text-anchor="middle" x="441.75" y="-1097.45" font-family="Helvetica,sans-Serif" font-weight="bold" font-size="9.00">..</text>
</g>
<g id="clust3" class="cluster">
<title>cluster_../../Core</title>
<path fill="#ffffff" stroke="black" stroke-width="2" d="M414.5,-1028C414.5,-1028 469,-1028 469,-1028 475,-1028 481,-1034 481,-1040 481,-1040 481,-1071 481,-1071 481,-1077 475,-1083 469,-1083 469,-1083 414.5,-1083 414.5,-1083 408.5,-1083 402.5,-1077 402.5,-1071 402.5,-1071 402.5,-1040 402.5,-1040 402.5,-1034 408.5,-1028 414.5,-1028"/>
<text text-anchor="middle" x="441.75" y="-1070.45" font-family="Helvetica,sans-Serif" font-weight="bold" font-size="9.00">Core</text>
</g>
<g id="clust4" class="cluster">
<title>cluster_../Core</title>
<path fill="#ffffff" stroke="black" stroke-width="2" d="M414.5,-957C414.5,-957 469,-957 469,-957 475,-957 481,-963 481,-969 481,-969 481,-1000 481,-1000 481,-1006 475,-1012 469,-1012 469,-1012 414.5,-1012 414.5,-1012 408.5,-1012 402.5,-1006 402.5,-1000 402.5,-1000 402.5,-969 402.5,-969 402.5,-963 408.5,-957 414.5,-957"/>
<text text-anchor="middle" x="441.75" y="-999.45" font-family="Helvetica,sans-Serif" font-weight="bold" font-size="9.00">Core</text>
</g>
<g id="clust5" class="cluster">
<title>cluster_lib</title>
<path fill="#ffffff" stroke="black" stroke-width="2" d="M20,-575C20,-575 605.75,-575 605.75,-575 611.75,-575 617.75,-581 617.75,-587 617.75,-587 617.75,-901 617.75,-901 617.75,-907 611.75,-913 605.75,-913 605.75,-913 20,-913 20,-913 14,-913 8,-907 8,-901 8,-901 8,-587 8,-587 8,-581 14,-575 20,-575"/>
<text text-anchor="middle" x="312.88" y="-900.45" font-family="Helvetica,sans-Serif" font-weight="bold" font-size="9.00">lib</text>
</g>
<g id="clust6" class="cluster">
<title>cluster_lib/Core</title>
<path fill="#ffffff" stroke="black" stroke-width="2" d="M386.75,-630C386.75,-630 597.75,-630 597.75,-630 603.75,-630 609.75,-636 609.75,-642 609.75,-642 609.75,-735 609.75,-735 609.75,-741 603.75,-747 597.75,-747 597.75,-747 386.75,-747 386.75,-747 380.75,-747 374.75,-741 374.75,-735 374.75,-735 374.75,-642 374.75,-642 374.75,-636 380.75,-630 386.75,-630"/>
<text text-anchor="middle" x="492.25" y="-734.45" font-family="Helvetica,sans-Serif" font-weight="bold" font-size="9.00">Core</text>
</g>
<g id="clust7" class="cluster">
<title>cluster_lib/Models</title>
<path fill="#ffffff" stroke="black" stroke-width="2" d="M28,-583C28,-583 354.75,-583 354.75,-583 360.75,-583 366.75,-589 366.75,-595 366.75,-595 366.75,-874 366.75,-874 366.75,-880 360.75,-886 354.75,-886 354.75,-886 28,-886 28,-886 22,-886 16,-880 16,-874 16,-874 16,-595 16,-595 16,-589 22,-583 28,-583"/>
<text text-anchor="middle" x="191.38" y="-873.45" font-family="Helvetica,sans-Serif" font-weight="bold" font-size="9.00">Models</text>
</g>
<g id="clust8" class="cluster">
<title>cluster_lib/Models/Catalog</title>
<path fill="#ffffff" stroke="black" stroke-width="2" d="M36,-804C36,-804 195.5,-804 195.5,-804 201.5,-804 207.5,-810 207.5,-816 207.5,-816 207.5,-847 207.5,-847 207.5,-853 201.5,-859 195.5,-859 195.5,-859 36,-859 36,-859 30,-859 24,-853 24,-847 24,-847 24,-816 24,-816 24,-810 30,-804 36,-804"/>
<text text-anchor="middle" x="115.75" y="-846.45" font-family="Helvetica,sans-Serif" font-weight="bold" font-size="9.00">Catalog</text>
</g>
<g id="clust9" class="cluster">
<title>cluster_lib/Models/Feature</title>
<path fill="#ffffff" stroke="black" stroke-width="2" d="M50.25,-713C50.25,-713 181.25,-713 181.25,-713 187.25,-713 193.25,-719 193.25,-725 193.25,-725 193.25,-756 193.25,-756 193.25,-762 187.25,-768 181.25,-768 181.25,-768 50.25,-768 50.25,-768 44.25,-768 38.25,-762 38.25,-756 38.25,-756 38.25,-725 38.25,-725 38.25,-719 44.25,-713 50.25,-713"/>
<text text-anchor="middle" x="115.75" y="-755.45" font-family="Helvetica,sans-Serif" font-weight="bold" font-size="9.00">Feature</text>
</g>
<g id="clust10" class="cluster">
<title>cluster_lib/Models/FunctionParameters</title>
<path fill="#ffffff" stroke="black" stroke-width="2" d="M48,-619C48,-619 346.75,-619 346.75,-619 352.75,-619 358.75,-625 358.75,-631 358.75,-631 358.75,-693 358.75,-693 358.75,-699 352.75,-705 346.75,-705 346.75,-705 48,-705 48,-705 42,-705 36,-699 36,-693 36,-693 36,-631 36,-631 36,-625 42,-619 48,-619"/>
<text text-anchor="middle" x="197.38" y="-692.45" font-family="Helvetica,sans-Serif" font-weight="bold" font-size="9.00">FunctionParameters</text>
</g>
<g id="clust11" class="cluster">
<title>cluster_node_modules</title>
<path fill="#ffffff" stroke="black" stroke-width="2" d="M637.75,-406C637.75,-406 711.75,-406 711.75,-406 717.75,-406 723.75,-412 723.75,-418 723.75,-418 723.75,-511 723.75,-511 723.75,-517 717.75,-523 711.75,-523 711.75,-523 637.75,-523 637.75,-523 631.75,-523 625.75,-517 625.75,-511 625.75,-511 625.75,-418 625.75,-418 625.75,-412 631.75,-406 637.75,-406"/>
<text text-anchor="middle" x="674.75" y="-510.45" font-family="Helvetica,sans-Serif" font-weight="bold" font-size="9.00">node_modules</text>
</g>
<g id="clust12" class="cluster">
<title>cluster_wwwroot</title>
<path fill="#ffffff" stroke="black" stroke-width="2" d="M241.88,-8C241.88,-8 324.38,-8 324.38,-8 330.38,-8 336.38,-14 336.38,-20 336.38,-20 336.38,-86 336.38,-86 336.38,-92 330.38,-98 324.38,-98 324.38,-98 241.88,-98 241.88,-98 235.88,-98 229.88,-92 229.88,-86 229.88,-86 229.88,-20 229.88,-20 229.88,-14 235.88,-8 241.88,-8"/>
<text text-anchor="middle" x="283.12" y="-85.45" font-family="Helvetica,sans-Serif" font-weight="bold" font-size="9.00">wwwroot</text>
</g>
<g id="clust13" class="cluster">
<title>cluster_wwwroot/images</title>
<path fill="#ffffff" stroke="black" stroke-width="2" d="M249.88,-16C249.88,-16 316.38,-16 316.38,-16 322.38,-16 328.38,-22 328.38,-28 328.38,-28 328.38,-59 328.38,-59 328.38,-65 322.38,-71 316.38,-71 316.38,-71 249.88,-71 249.88,-71 243.88,-71 237.88,-65 237.88,-59 237.88,-59 237.88,-28 237.88,-28 237.88,-22 243.88,-16 249.88,-16"/>
<text text-anchor="middle" x="283.12" y="-58.45" font-family="Helvetica,sans-Serif" font-weight="bold" font-size="9.00">images</text>
</g>
<!-- ../../Core/TerriaError -->
<g id="node1" class="node">
<title>../../Core/TerriaError</title>
<g id="a_node1"><a xlink:title="TerriaError">
<path fill="#ffffcc" stroke="red" d="M466.58,-1055.62C466.58,-1055.62 416.92,-1055.62 416.92,-1055.62 413.71,-1055.62 410.5,-1052.42 410.5,-1049.21 410.5,-1049.21 410.5,-1042.79 410.5,-1042.79 410.5,-1039.58 413.71,-1036.38 416.92,-1036.38 416.92,-1036.38 466.58,-1036.38 466.58,-1036.38 469.79,-1036.38 473,-1039.58 473,-1042.79 473,-1042.79 473,-1049.21 473,-1049.21 473,-1052.42 469.79,-1055.62 466.58,-1055.62"/>
<text text-anchor="start" x="418.5" y="-1043.08" font-family="Helvetica,sans-Serif" font-size="9.00" fill="red">TerriaError</text>
</a>
</g>
</g>
<!-- ../Core/TerriaError -->
<g id="node2" class="node">
<title>../Core/TerriaError</title>
<g id="a_node2"><a xlink:title="TerriaError">
<path fill="#ffffcc" stroke="red" d="M466.58,-984.62C466.58,-984.62 416.92,-984.62 416.92,-984.62 413.71,-984.62 410.5,-981.42 410.5,-978.21 410.5,-978.21 410.5,-971.79 410.5,-971.79 410.5,-968.58 413.71,-965.38 416.92,-965.38 416.92,-965.38 466.58,-965.38 466.58,-965.38 469.79,-965.38 473,-968.58 473,-971.79 473,-971.79 473,-978.21 473,-978.21 473,-981.42 469.79,-984.62 466.58,-984.62"/>
<text text-anchor="start" x="418.5" y="-972.08" font-family="Helvetica,sans-Serif" font-size="9.00" fill="red">TerriaError</text>
</a>
</g>
</g>
<!-- ../FunctionParameter -->
<g id="node3" class="node">
<title>../FunctionParameter</title>
<g id="a_node3"><a xlink:title="FunctionParameter">
<path fill="#ffffcc" stroke="red" d="M486.08,-948.62C486.08,-948.62 397.42,-948.62 397.42,-948.62 394.21,-948.62 391,-945.42 391,-942.21 391,-942.21 391,-935.79 391,-935.79 391,-932.58 394.21,-929.38 397.42,-929.38 397.42,-929.38 486.08,-929.38 486.08,-929.38 489.29,-929.38 492.5,-932.58 492.5,-935.79 492.5,-935.79 492.5,-942.21 492.5,-942.21 492.5,-945.42 489.29,-948.62 486.08,-948.62"/>
<text text-anchor="start" x="399" y="-936.08" font-family="Helvetica,sans-Serif" font-size="9.00" fill="red">FunctionParameter</text>
</a>
</g>
</g>
<!-- ./BooleanParameter -->
<g id="node4" class="node">
<title>./BooleanParameter</title>
<g id="a_node4"><a xlink:title="BooleanParameter">
<path fill="#ffffcc" stroke="red" d="M484.21,-506.62C484.21,-506.62 399.29,-506.62 399.29,-506.62 396.08,-506.62 392.88,-503.42 392.88,-500.21 392.88,-500.21 392.88,-493.79 392.88,-493.79 392.88,-490.58 396.08,-487.38 399.29,-487.38 399.29,-487.38 484.21,-487.38 484.21,-487.38 487.42,-487.38 490.62,-490.58 490.62,-493.79 490.62,-493.79 490.62,-500.21 490.62,-500.21 490.62,-503.42 487.42,-506.62 484.21,-506.62"/>
<text text-anchor="start" x="400.88" y="-494.07" font-family="Helvetica,sans-Serif" font-size="9.00" fill="red">BooleanParameter</text>
</a>
</g>
</g>
<!-- ./DateTimeParameter -->
<g id="node5" class="node">
<title>./DateTimeParameter</title>
<g id="a_node5"><a xlink:title="DateTimeParameter">
<path fill="#ffffcc" stroke="red" d="M329.33,-333.62C329.33,-333.62 236.92,-333.62 236.92,-333.62 233.71,-333.62 230.5,-330.42 230.5,-327.21 230.5,-327.21 230.5,-320.79 230.5,-320.79 230.5,-317.58 233.71,-314.38 236.92,-314.38 236.92,-314.38 329.33,-314.38 329.33,-314.38 332.54,-314.38 335.75,-317.58 335.75,-320.79 335.75,-320.79 335.75,-327.21 335.75,-327.21 335.75,-330.42 332.54,-333.62 329.33,-333.62"/>
<text text-anchor="start" x="238.5" y="-321.07" font-family="Helvetica,sans-Serif" font-size="9.00" fill="red">DateTimeParameter</text>
</a>
</g>
</g>
<!-- ./EnumerationParameter -->
<g id="node6" class="node">
<title>./EnumerationParameter</title>
<g id="a_node6"><a xlink:title="EnumerationParameter">
<path fill="#ffffcc" stroke="red" d="M337.21,-302.62C337.21,-302.62 229.04,-302.62 229.04,-302.62 225.83,-302.62 222.62,-299.42 222.62,-296.21 222.62,-296.21 222.62,-289.79 222.62,-289.79 222.62,-286.58 225.83,-283.38 229.04,-283.38 229.04,-283.38 337.21,-283.38 337.21,-283.38 340.42,-283.38 343.62,-286.58 343.62,-289.79 343.62,-289.79 343.62,-296.21 343.62,-296.21 343.62,-299.42 340.42,-302.62 337.21,-302.62"/>
<text text-anchor="start" x="230.62" y="-290.07" font-family="Helvetica,sans-Serif" font-size="9.00" fill="red">EnumerationParameter</text>
</a>
</g>
</g>
<!-- ./FunctionParameter -->
<g id="node7" class="node">
<title>./FunctionParameter</title>
<g id="a_node7"><a xlink:title="FunctionParameter">
<path fill="#ffffcc" stroke="red" d="M327.46,-422.62C327.46,-422.62 238.79,-422.62 238.79,-422.62 235.58,-422.62 232.38,-419.42 232.38,-416.21 232.38,-416.21 232.38,-409.79 232.38,-409.79 232.38,-406.58 235.58,-403.38 238.79,-403.38 238.79,-403.38 327.46,-403.38 327.46,-403.38 330.67,-403.38 333.88,-406.58 333.88,-409.79 333.88,-409.79 333.88,-416.21 333.88,-416.21 333.88,-419.42 330.67,-422.62 327.46,-422.62"/>
<text text-anchor="start" x="240.38" y="-410.07" font-family="Helvetica,sans-Serif" font-size="9.00" fill="red">FunctionParameter</text>
</a>
</g>
</g>
<!-- ./LineParameter -->
<g id="node8" class="node">
<title>./LineParameter</title>
<g id="a_node8"><a xlink:title="LineParameter">
<path fill="#ffffcc" stroke="red" d="M317.33,-271.62C317.33,-271.62 248.92,-271.62 248.92,-271.62 245.71,-271.62 242.5,-268.42 242.5,-265.21 242.5,-265.21 242.5,-258.79 242.5,-258.79 242.5,-255.58 245.71,-252.38 248.92,-252.38 248.92,-252.38 317.33,-252.38 317.33,-252.38 320.54,-252.38 323.75,-255.58 323.75,-258.79 323.75,-258.79 323.75,-265.21 323.75,-265.21 323.75,-268.42 320.54,-271.62 317.33,-271.62"/>
<text text-anchor="start" x="250.5" y="-259.07" font-family="Helvetica,sans-Serif" font-size="9.00" fill="red">LineParameter</text>
</a>
</g>
</g>
<!-- ./PointParameter -->
<g id="node9" class="node">
<title>./PointParameter</title>
<g id="a_node9"><a xlink:title="PointParameter">
<path fill="#ffffcc" stroke="red" d="M319.21,-187.62C319.21,-187.62 247.04,-187.62 247.04,-187.62 243.83,-187.62 240.62,-184.42 240.62,-181.21 240.62,-181.21 240.62,-174.79 240.62,-174.79 240.62,-171.58 243.83,-168.38 247.04,-168.38 247.04,-168.38 319.21,-168.38 319.21,-168.38 322.42,-168.38 325.62,-171.58 325.62,-174.79 325.62,-174.79 325.62,-181.21 325.62,-181.21 325.62,-184.42 322.42,-187.62 319.21,-187.62"/>
<text text-anchor="start" x="248.62" y="-175.07" font-family="Helvetica,sans-Serif" font-size="9.00" fill="red">PointParameter</text>
</a>
</g>
</g>
<!-- ./PolygonParameter -->
<g id="node10" class="node">
<title>./PolygonParameter</title>
<g id="a_node10"><a xlink:title="PolygonParameter">
<path fill="#ffffcc" stroke="red" d="M325.58,-156.62C325.58,-156.62 240.67,-156.62 240.67,-156.62 237.46,-156.62 234.25,-153.42 234.25,-150.21 234.25,-150.21 234.25,-143.79 234.25,-143.79 234.25,-140.58 237.46,-137.38 240.67,-137.38 240.67,-137.38 325.58,-137.38 325.58,-137.38 328.79,-137.38 332,-140.58 332,-143.79 332,-143.79 332,-150.21 332,-150.21 332,-153.42 328.79,-156.62 325.58,-156.62"/>
<text text-anchor="start" x="242.25" y="-144.07" font-family="Helvetica,sans-Serif" font-size="9.00" fill="red">PolygonParameter</text>
</a>
</g>
</g>
<!-- ./RectangleParameter -->
<g id="node11" class="node">
<title>./RectangleParameter</title>
<g id="a_node11"><a xlink:title="RectangleParameter">
<path fill="#ffffcc" stroke="red" d="M330.46,-125.62C330.46,-125.62 235.79,-125.62 235.79,-125.62 232.58,-125.62 229.38,-122.42 229.38,-119.21 229.38,-119.21 229.38,-112.79 229.38,-112.79 229.38,-109.58 232.58,-106.38 235.79,-106.38 235.79,-106.38 330.46,-106.38 330.46,-106.38 333.67,-106.38 336.88,-109.58 336.88,-112.79 336.88,-112.79 336.88,-119.21 336.88,-119.21 336.88,-122.42 333.67,-125.62 330.46,-125.62"/>
<text text-anchor="start" x="237.38" y="-113.08" font-family="Helvetica,sans-Serif" font-size="9.00" fill="red">RectangleParameter</text>
</a>
</g>
</g>
<!-- ./RegionTypeParameter -->
<g id="node12" class="node">
<title>./RegionTypeParameter</title>
<g id="a_node12"><a xlink:title="RegionTypeParameter">
<path fill="#ffffcc" stroke="red" d="M333.46,-480.62C333.46,-480.62 232.79,-480.62 232.79,-480.62 229.58,-480.62 226.38,-477.42 226.38,-474.21 226.38,-474.21 226.38,-467.79 226.38,-467.79 226.38,-464.58 229.58,-461.38 232.79,-461.38 232.79,-461.38 333.46,-461.38 333.46,-461.38 336.67,-461.38 339.88,-464.58 339.88,-467.79 339.88,-467.79 339.88,-474.21 339.88,-474.21 339.88,-477.42 336.67,-480.62 333.46,-480.62"/>
<text text-anchor="start" x="234.38" y="-468.07" font-family="Helvetica,sans-Serif" font-size="9.00" fill="red">RegionTypeParameter</text>
</a>
</g>
</g>
<!-- ./StringParameter -->
<g id="node13" class="node">
<title>./StringParameter</title>
<g id="a_node13"><a xlink:title="StringParameter">
<path fill="#ffffcc" stroke="red" d="M321.83,-364.62C321.83,-364.62 244.42,-364.62 244.42,-364.62 241.21,-364.62 238,-361.42 238,-358.21 238,-358.21 238,-351.79 238,-351.79 238,-348.58 241.21,-345.38 244.42,-345.38 244.42,-345.38 321.83,-345.38 321.83,-345.38 325.04,-345.38 328.25,-348.58 328.25,-351.79 328.25,-351.79 328.25,-358.21 328.25,-358.21 328.25,-361.42 325.04,-364.62 321.83,-364.62"/>
<text text-anchor="start" x="246" y="-352.07" font-family="Helvetica,sans-Serif" font-size="9.00" fill="red">StringParameter</text>
</a>
</g>
</g>
<!-- lib/Core/formatPropertyValue.js -->
<g id="node14" class="node">
<title>lib/Core/formatPropertyValue.js</title>
<g id="a_node14"><a xlink:href="lib/Core/formatPropertyValue.js" xlink:title="formatPropertyValue.js">
<path fill="#ffffcc" stroke="black" d="M494.33,-688.62C494.33,-688.62 389.17,-688.62 389.17,-688.62 385.96,-688.62 382.75,-685.42 382.75,-682.21 382.75,-682.21 382.75,-675.79 382.75,-675.79 382.75,-672.58 385.96,-669.38 389.17,-669.38 389.17,-669.38 494.33,-669.38 494.33,-669.38 497.54,-669.38 500.75,-672.58 500.75,-675.79 500.75,-675.79 500.75,-682.21 500.75,-682.21 500.75,-685.42 497.54,-688.62 494.33,-688.62"/>
<text text-anchor="start" x="390.75" y="-676.08" font-family="Helvetica,sans-Serif" font-size="9.00">formatPropertyValue.js</text>
</a>
</g>
</g>
<!-- lib/Core/linkifyContent.js -->
<g id="node15" class="node">
<title>lib/Core/linkifyContent.js</title>
<g id="a_node15"><a xlink:href="lib/Core/linkifyContent.js" xlink:title="linkifyContent.js">
<path fill="#ffffcc" stroke="black" d="M595.33,-683.62C595.33,-683.62 520.17,-683.62 520.17,-683.62 516.96,-683.62 513.75,-680.42 513.75,-677.21 513.75,-677.21 513.75,-670.79 513.75,-670.79 513.75,-667.58 516.96,-664.38 520.17,-664.38 520.17,-664.38 595.33,-664.38 595.33,-664.38 598.54,-664.38 601.75,-667.58 601.75,-670.79 601.75,-670.79 601.75,-677.21 601.75,-677.21 601.75,-680.42 598.54,-683.62 595.33,-683.62"/>
<text text-anchor="start" x="521.75" y="-671.08" font-family="Helvetica,sans-Serif" font-size="9.00">linkifyContent.js</text>
</a>
</g>
</g>
<!-- lib/Core/formatPropertyValue.js&#45;&gt;lib/Core/linkifyContent.js -->
<g id="edge1" class="edge">
<title>lib/Core/formatPropertyValue.js&#45;&gt;lib/Core/linkifyContent.js</title>
<path fill="none" stroke="#000000" stroke-width="2" stroke-opacity="0.200000" d="M501.09,-676.44C502.26,-676.39 503.43,-676.34 504.59,-676.29"/>
<polygon fill="#000000" fill-opacity="0.200000" stroke="#000000" stroke-width="2" stroke-opacity="0.200000" points="504.53,-678.39 510.43,-676.03 504.35,-674.2 504.53,-678.39"/>
</g>
<!-- node_modules/linkify&#45;it -->
<g id="node17" class="node">
<title>node_modules/linkify&#45;it</title>
<g id="a_node17"><a xlink:href="node_modules/linkify-it" xlink:title="linkify&#45;it">
<polygon fill="#c40b0a" fill-opacity="0.101961" stroke="black" points="701.75,-495.62 649.89,-495.62 647.75,-493.49 647.75,-476.38 699.61,-476.38 701.75,-478.51 701.75,-495.62"/>
<polyline fill="none" stroke="black" points="699.61,-493.49 647.75,-493.49"/>
<polyline fill="none" stroke="black" points="699.61,-493.49 699.61,-476.38"/>
<polyline fill="none" stroke="black" points="699.61,-493.49 701.75,-495.62"/>
<text text-anchor="start" x="657.12" y="-483.07" font-family="Helvetica,sans-Serif" font-size="9.00" fill="#c40b0a">linkify&#45;it</text>
</a>
</g>
</g>
<!-- lib/Core/linkifyContent.js&#45;&gt;node_modules/linkify&#45;it -->
<g id="edge2" class="edge">
<title>lib/Core/linkifyContent.js&#45;&gt;node_modules/linkify&#45;it</title>
<path fill="none" stroke="#000000" stroke-opacity="0.200000" d="M590.25,-663.91C600.15,-659.45 610.4,-653.28 617.75,-645 655.02,-603.04 667.87,-534.74 671.98,-503.09"/>
<polygon fill="#000000" fill-opacity="0.200000" stroke="#000000" stroke-opacity="0.200000" points="674.04,-503.58 672.67,-497.38 669.87,-503.08 674.04,-503.58"/>
</g>
<!-- lib/Core/inherit.js -->
<g id="node16" class="node">
<title>lib/Core/inherit.js</title>
<g id="a_node16"><a xlink:href="lib/Core/inherit.js" xlink:title="inherit.js">
<path fill="#ffffcc" stroke="black" d="M462.83,-657.62C462.83,-657.62 420.67,-657.62 420.67,-657.62 417.46,-657.62 414.25,-654.42 414.25,-651.21 414.25,-651.21 414.25,-644.79 414.25,-644.79 414.25,-641.58 417.46,-638.38 420.67,-638.38 420.67,-638.38 462.83,-638.38 462.83,-638.38 466.04,-638.38 469.25,-641.58 469.25,-644.79 469.25,-644.79 469.25,-651.21 469.25,-651.21 469.25,-654.42 466.04,-657.62 462.83,-657.62"/>
<text text-anchor="start" x="422.25" y="-645.08" font-family="Helvetica,sans-Serif" font-size="9.00">inherit.js</text>
</a>
</g>
</g>
<!-- lib/Core/loadWithXhr.js -->
<g id="node18" class="node">
<title>lib/Core/loadWithXhr.js</title>
<g id="a_node18"><a xlink:href="lib/Core/loadWithXhr.js" xlink:title="loadWithXhr.js">
<path fill="#ffffcc" stroke="black" d="M475.58,-719.62C475.58,-719.62 407.92,-719.62 407.92,-719.62 404.71,-719.62 401.5,-716.42 401.5,-713.21 401.5,-713.21 401.5,-706.79 401.5,-706.79 401.5,-703.58 404.71,-700.38 407.92,-700.38 407.92,-700.38 475.58,-700.38 475.58,-700.38 478.79,-700.38 482,-703.58 482,-706.79 482,-706.79 482,-713.21 482,-713.21 482,-716.42 478.79,-719.62 475.58,-719.62"/>
<text text-anchor="start" x="409.5" y="-707.08" font-family="Helvetica,sans-Serif" font-size="9.00">loadWithXhr.js</text>
</a>
</g>
</g>
<!-- node_modules/terriajs&#45;cesium -->
<g id="node19" class="node">
<title>node_modules/terriajs&#45;cesium</title>
<g id="a_node19"><a xlink:href="node_modules/terriajs-cesium" xlink:title="terriajs&#45;cesium">
<polygon fill="#c40b0a" fill-opacity="0.101961" stroke="black" points="715.75,-464.62 635.89,-464.62 633.75,-462.49 633.75,-445.38 713.61,-445.38 715.75,-447.51 715.75,-464.62"/>
<polyline fill="none" stroke="black" points="713.61,-462.49 633.75,-462.49"/>
<polyline fill="none" stroke="black" points="713.61,-462.49 713.61,-445.38"/>
<polyline fill="none" stroke="black" points="713.61,-462.49 715.75,-464.62"/>
<text text-anchor="start" x="641.75" y="-452.07" font-family="Helvetica,sans-Serif" font-size="9.00" fill="#c40b0a">terriajs&#45;cesium</text>
</a>
</g>
</g>
<!-- lib/Core/loadWithXhr.js&#45;&gt;node_modules/terriajs&#45;cesium -->
<g id="edge3" class="edge">
<title>lib/Core/loadWithXhr.js&#45;&gt;node_modules/terriajs&#45;cesium</title>
<path fill="none" stroke="#000000" stroke-opacity="0.200000" d="M482.22,-705.35C489.01,-703.09 495.54,-699.78 500.75,-695 513.59,-683.21 501.82,-670.7 513.75,-658 548.12,-621.42 588.87,-655.05 617.75,-614 636.19,-587.79 606.06,-495.29 625.75,-470 626.42,-469.14 627.14,-468.33 627.9,-467.56"/>
<polygon fill="#000000" fill-opacity="0.200000" stroke="#000000" stroke-opacity="0.200000" points="628.9,-469.45 632.3,-464.07 626.29,-466.16 628.9,-469.45"/>
</g>
<!-- lib/Models/Catalog/createCatalogMemberFromType.js -->
<g id="node20" class="node">
<title>lib/Models/Catalog/createCatalogMemberFromType.js</title>
<g id="a_node20"><a xlink:href="lib/Models/Catalog/createCatalogMemberFromType.js" xlink:title="createCatalogMemberFromType.js">
<path fill="#ffffcc" stroke="black" d="M193.08,-831.62C193.08,-831.62 38.42,-831.62 38.42,-831.62 35.21,-831.62 32,-828.42 32,-825.21 32,-825.21 32,-818.79 32,-818.79 32,-815.58 35.21,-812.38 38.42,-812.38 38.42,-812.38 193.08,-812.38 193.08,-812.38 196.29,-812.38 199.5,-815.58 199.5,-818.79 199.5,-818.79 199.5,-825.21 199.5,-825.21 199.5,-828.42 196.29,-831.62 193.08,-831.62"/>
<text text-anchor="start" x="40" y="-819.08" font-family="Helvetica,sans-Serif" font-size="9.00">createCatalogMemberFromType.js</text>
</a>
</g>
</g>
<!-- lib/Models/Catalog/createCatalogMemberFromType.js&#45;&gt;../../Core/TerriaError -->
<g id="edge4" class="edge">
<title>lib/Models/Catalog/createCatalogMemberFromType.js&#45;&gt;../../Core/TerriaError</title>
<g id="a_edge4"><a xlink:title="not&#45;to&#45;unresolvable">
<path fill="none" stroke="red" stroke-width="2" d="M128.23,-831.95C163.39,-862.1 273.32,-954.1 374.75,-1015 385.3,-1021.33 397.36,-1027.33 408.25,-1032.33"/>
<polygon fill="red" stroke="red" stroke-width="2" points="407.22,-1034.17 413.55,-1034.71 408.94,-1030.33 407.22,-1034.17"/>
</a>
</g>
<text text-anchor="middle" x="222.66" y="-933.47" font-family="Helvetica,sans-Serif" font-size="9.00" fill="red">not&#45;to&#45;unresolvable</text>
</g>
<!-- lib/Models/Catalog/createCatalogMemberFromType.js&#45;&gt;node_modules/terriajs&#45;cesium -->
<g id="edge6" class="edge">
<title>lib/Models/Catalog/createCatalogMemberFromType.js&#45;&gt;node_modules/terriajs&#45;cesium</title>
<path fill="none" stroke="#000000" stroke-opacity="0.200000" d="M199.74,-814.84C202.56,-812.88 205.16,-810.61 207.5,-808 221.73,-792.08 200.83,-631.52 215.5,-616 259.25,-569.71 440.58,-608.88 500.75,-588 559.1,-567.75 583.26,-564.24 617.75,-513 628.6,-496.87 612.85,-484.54 625.75,-470 626.3,-469.38 626.88,-468.78 627.47,-468.21"/>
<polygon fill="#000000" fill-opacity="0.200000" stroke="#000000" stroke-opacity="0.200000" points="628.69,-469.93 632.2,-464.62 626.15,-466.58 628.69,-469.93"/>
</g>
<!-- node_modules/i18next -->
<g id="node21" class="node">
<title>node_modules/i18next</title>
<g id="a_node21"><a xlink:href="node_modules/i18next" xlink:title="i18next">
<polygon fill="#c40b0a" fill-opacity="0.101961" stroke="black" points="701.75,-433.62 649.89,-433.62 647.75,-431.49 647.75,-414.38 699.61,-414.38 701.75,-416.51 701.75,-433.62"/>
<polyline fill="none" stroke="black" points="699.61,-431.49 647.75,-431.49"/>
<polyline fill="none" stroke="black" points="699.61,-431.49 699.61,-414.38"/>
<polyline fill="none" stroke="black" points="699.61,-431.49 701.75,-433.62"/>
<text text-anchor="start" x="657.5" y="-421.07" font-family="Helvetica,sans-Serif" font-size="9.00" fill="#c40b0a">i18next</text>
</a>
</g>
</g>
<!-- lib/Models/Catalog/createCatalogMemberFromType.js&#45;&gt;node_modules/i18next -->
<g id="edge5" class="edge">
<title>lib/Models/Catalog/createCatalogMemberFromType.js&#45;&gt;node_modules/i18next</title>
<path fill="none" stroke="#000000" stroke-opacity="0.200000" d="M199.76,-814.86C202.57,-812.89 205.17,-810.62 207.5,-808 223.61,-789.89 199.82,-608.48 215.5,-590 299.18,-491.34 395.37,-607.05 500.75,-532 510,-525.41 505.85,-518.16 513.75,-510 554.77,-467.68 572.28,-463.78 625.75,-439 630.43,-436.83 635.51,-434.86 640.56,-433.12"/>
<polygon fill="#000000" fill-opacity="0.200000" stroke="#000000" stroke-opacity="0.200000" points="640.89,-435.22 645.94,-431.35 639.58,-431.23 640.89,-435.22"/>
</g>
<!-- lib/Models/Feature/ImageryLayerFeatureInfo.js -->
<g id="node22" class="node">
<title>lib/Models/Feature/ImageryLayerFeatureInfo.js</title>
<g id="a_node22"><a xlink:href="lib/Models/Feature/ImageryLayerFeatureInfo.js" xlink:title="ImageryLayerFeatureInfo.js">
<path fill="#ffffcc" stroke="black" d="M178.83,-740.62C178.83,-740.62 52.67,-740.62 52.67,-740.62 49.46,-740.62 46.25,-737.42 46.25,-734.21 46.25,-734.21 46.25,-727.79 46.25,-727.79 46.25,-724.58 49.46,-721.38 52.67,-721.38 52.67,-721.38 178.83,-721.38 178.83,-721.38 182.04,-721.38 185.25,-724.58 185.25,-727.79 185.25,-727.79 185.25,-734.21 185.25,-734.21 185.25,-737.42 182.04,-740.62 178.83,-740.62"/>
<text text-anchor="start" x="54.25" y="-728.08" font-family="Helvetica,sans-Serif" font-size="9.00">ImageryLayerFeatureInfo.js</text>
</a>
</g>
</g>
<!-- lib/Models/Feature/ImageryLayerFeatureInfo.js&#45;&gt;lib/Core/formatPropertyValue.js -->
<g id="edge7" class="edge">
<title>lib/Models/Feature/ImageryLayerFeatureInfo.js&#45;&gt;lib/Core/formatPropertyValue.js</title>
<path fill="none" stroke="#000000" stroke-width="2" stroke-opacity="0.200000" d="M185.53,-727.92C254.25,-724.33 351.79,-717.62 366.75,-708 372.78,-704.12 368.99,-698.27 374.75,-694 374.91,-693.88 375.07,-693.76 375.23,-693.65"/>
<polygon fill="#000000" fill-opacity="0.200000" stroke="#000000" stroke-width="2" stroke-opacity="0.200000" points="376.28,-695.47 380.33,-690.57 374.11,-691.87 376.28,-695.47"/>
</g>
<!-- lib/Models/Feature/ImageryLayerFeatureInfo.js&#45;&gt;node_modules/terriajs&#45;cesium -->
<g id="edge8" class="edge">
<title>lib/Models/Feature/ImageryLayerFeatureInfo.js&#45;&gt;node_modules/terriajs&#45;cesium</title>
<path fill="none" stroke="#000000" stroke-opacity="0.200000" d="M185.38,-723.91C193.88,-720.29 201.64,-715.17 207.5,-708 219.19,-693.7 204.55,-556.87 215.5,-542 257.93,-484.42 303.85,-521.05 366.75,-487 370.66,-484.88 370.6,-482.59 374.75,-481 397.59,-472.27 547.67,-462.36 626.13,-457.7"/>
<polygon fill="#000000" fill-opacity="0.200000" stroke="#000000" stroke-opacity="0.200000" points="626.11,-459.81 631.98,-457.36 625.87,-455.61 626.11,-459.81"/>
</g>
<!-- lib/Models/FunctionParameters/BooleanParameterGroup.js -->
<g id="node23" class="node">
<title>lib/Models/FunctionParameters/BooleanParameterGroup.js</title>
<g id="a_node23"><a xlink:href="lib/Models/FunctionParameters/BooleanParameterGroup.js" xlink:title="BooleanParameterGroup.js">
<path fill="#ffffcc" stroke="black" d="M344.33,-646.62C344.33,-646.62 221.92,-646.62 221.92,-646.62 218.71,-646.62 215.5,-643.42 215.5,-640.21 215.5,-640.21 215.5,-633.79 215.5,-633.79 215.5,-630.58 218.71,-627.38 221.92,-627.38 221.92,-627.38 344.33,-627.38 344.33,-627.38 347.54,-627.38 350.75,-630.58 350.75,-633.79 350.75,-633.79 350.75,-640.21 350.75,-640.21 350.75,-643.42 347.54,-646.62 344.33,-646.62"/>
<text text-anchor="start" x="223.5" y="-634.08" font-family="Helvetica,sans-Serif" font-size="9.00">BooleanParameterGroup.js</text>
</a>
</g>
</g>
<!-- lib/Models/FunctionParameters/BooleanParameterGroup.js&#45;&gt;../FunctionParameter -->
<g id="edge10" class="edge">
<title>lib/Models/FunctionParameters/BooleanParameterGroup.js&#45;&gt;../FunctionParameter</title>
<g id="a_edge10"><a xlink:title="not&#45;to&#45;unresolvable">
<path fill="none" stroke="red" stroke-width="2" d="M351.01,-640.87C356.93,-643.52 362.34,-647.14 366.75,-652 381.42,-668.19 370.22,-728.62 374.75,-750 388.5,-814.92 418.45,-888.14 432.79,-921.16"/>
<polygon fill="red" stroke="red" stroke-width="2" points="430.69,-921.59 435.02,-926.25 434.53,-919.91 430.69,-921.59"/>
</a>
</g>
<text text-anchor="middle" x="340.33" y="-779.3" font-family="Helvetica,sans-Serif" font-size="9.00" fill="red">not&#45;to&#45;unresolvable</text>
</g>
<!-- lib/Models/FunctionParameters/BooleanParameterGroup.js&#45;&gt;./BooleanParameter -->
<g id="edge11" class="edge">
<title>lib/Models/FunctionParameters/BooleanParameterGroup.js&#45;&gt;./BooleanParameter</title>
<g id="a_edge11"><a xlink:title="not&#45;to&#45;unresolvable">
<path fill="none" stroke="red" stroke-width="2" d="M295.39,-626.93C322.37,-602.82 390.85,-541.6 423.25,-512.64"/>
<polygon fill="red" stroke="red" stroke-width="2" points="424.26,-514.56 427.33,-508.99 421.46,-511.43 424.26,-514.56"/>
</a>
</g>
<text text-anchor="middle" x="318.6" y="-558.42" font-family="Helvetica,sans-Serif" font-size="9.00" fill="red">not&#45;to&#45;unresolvable</text>
</g>
<!-- lib/Models/FunctionParameters/BooleanParameterGroup.js&#45;&gt;lib/Core/inherit.js -->
<g id="edge9" class="edge">
<title>lib/Models/FunctionParameters/BooleanParameterGroup.js&#45;&gt;lib/Core/inherit.js</title>
<path fill="none" stroke="#000000" stroke-width="2" stroke-opacity="0.200000" d="M351,-641.7C369.49,-643 388.85,-644.35 404.83,-645.48"/>
<polygon fill="#000000" fill-opacity="0.200000" stroke="#000000" stroke-width="2" stroke-opacity="0.200000" points="404.67,-647.57 410.8,-645.9 404.96,-643.38 404.67,-647.57"/>
</g>
<!-- lib/Models/FunctionParameters/RegionDataParameter.js -->
<g id="node24" class="node">
<title>lib/Models/FunctionParameters/RegionDataParameter.js</title>
<g id="a_node24"><a xlink:href="lib/Models/FunctionParameters/RegionDataParameter.js" xlink:title="RegionDataParameter.js">
<path fill="#ffffcc" stroke="black" d="M170.96,-677.62C170.96,-677.62 60.54,-677.62 60.54,-677.62 57.33,-677.62 54.12,-674.42 54.12,-671.21 54.12,-671.21 54.12,-664.79 54.12,-664.79 54.12,-661.58 57.33,-658.38 60.54,-658.38 60.54,-658.38 170.96,-658.38 170.96,-658.38 174.17,-658.38 177.38,-661.58 177.38,-664.79 177.38,-664.79 177.38,-671.21 177.38,-671.21 177.38,-674.42 174.17,-677.62 170.96,-677.62"/>
<text text-anchor="start" x="62.12" y="-665.08" font-family="Helvetica,sans-Serif" font-size="9.00">RegionDataParameter.js</text>
</a>
</g>
</g>
<!-- lib/Models/FunctionParameters/RegionDataParameter.js&#45;&gt;./FunctionParameter -->
<g id="edge13" class="edge">
<title>lib/Models/FunctionParameters/RegionDataParameter.js&#45;&gt;./FunctionParameter</title>
<g id="a_edge13"><a xlink:title="not&#45;to&#45;unresolvable">
<path fill="none" stroke="red" stroke-width="2" d="M177.77,-669.38C189.11,-666.73 199.8,-661.75 207.5,-653 223.73,-634.55 200.35,-451.34 215.5,-432 217.99,-428.83 220.97,-426.16 224.26,-423.91"/>
<polygon fill="red" stroke="red" stroke-width="2" points="225.06,-425.88 229.28,-421.13 223.02,-422.2 225.06,-425.88"/>
</a>
</g>
<text text-anchor="middle" x="168.1" y="-536.06" font-family="Helvetica,sans-Serif" font-size="9.00" fill="red">not&#45;to&#45;unresolvable</text>
</g>
<!-- lib/Models/FunctionParameters/RegionDataParameter.js&#45;&gt;./RegionTypeParameter -->
<g id="edge15" class="edge">
<title>lib/Models/FunctionParameters/RegionDataParameter.js&#45;&gt;./RegionTypeParameter</title>
<g id="a_edge15"><a xlink:title="not&#45;to&#45;unresolvable">
<path fill="none" stroke="red" stroke-width="2" d="M177.68,-669.3C189.03,-666.66 199.74,-661.7 207.5,-653 219.57,-639.46 204.23,-504.2 215.5,-490 216.59,-488.62 217.78,-487.34 219.04,-486.15"/>
<polygon fill="red" stroke="red" stroke-width="2" points="220.04,-488.03 223.55,-482.72 217.5,-484.68 220.04,-488.03"/>
</a>
</g>
<text text-anchor="middle" x="168" y="-566.26" font-family="Helvetica,sans-Serif" font-size="9.00" fill="red">not&#45;to&#45;unresolvable</text>
</g>
<!-- lib/Models/FunctionParameters/RegionDataParameter.js&#45;&gt;lib/Core/inherit.js -->
<g id="edge12" class="edge">
<title>lib/Models/FunctionParameters/RegionDataParameter.js&#45;&gt;lib/Core/inherit.js</title>
<path fill="none" stroke="#000000" stroke-width="2" stroke-opacity="0.200000" d="M169.09,-678.09C184.02,-680.53 200.35,-682.78 215.5,-684 282.51,-689.39 311.4,-722.15 366.75,-684 374.97,-678.33 367.21,-669.55 374.75,-663 383.14,-655.72 394.33,-651.77 405.11,-649.68"/>
<polygon fill="#000000" fill-opacity="0.200000" stroke="#000000" stroke-width="2" stroke-opacity="0.200000" points="405.39,-651.76 411.01,-648.79 404.76,-647.61 405.39,-651.76"/>
</g>
<!-- lib/Models/FunctionParameters/RegionDataParameter.js&#45;&gt;node_modules/terriajs&#45;cesium -->
<g id="edge16" class="edge">
<title>lib/Models/FunctionParameters/RegionDataParameter.js&#45;&gt;node_modules/terriajs&#45;cesium</title>
<path fill="none" stroke="#000000" stroke-opacity="0.200000" d="M177.74,-669.36C189.09,-666.71 199.78,-661.74 207.5,-653 222.08,-636.5 199.62,-470.25 215.5,-455 244.56,-427.09 514.62,-443.35 626.04,-451.36"/>
<polygon fill="#000000" fill-opacity="0.200000" stroke="#000000" stroke-opacity="0.200000" points="625.81,-453.45 631.95,-451.78 626.12,-449.26 625.81,-453.45"/>
</g>
<!-- lib/Models/FunctionParameters/RegionDataValue.js -->
<g id="node25" class="node">
<title>lib/Models/FunctionParameters/RegionDataValue.js</title>
<g id="a_node25"><a xlink:href="lib/Models/FunctionParameters/RegionDataValue.js" xlink:title="RegionDataValue.js">
<path fill="#ffffcc" stroke="black" d="M327.46,-677.62C327.46,-677.62 238.79,-677.62 238.79,-677.62 235.58,-677.62 232.38,-674.42 232.38,-671.21 232.38,-671.21 232.38,-664.79 232.38,-664.79 232.38,-661.58 235.58,-658.38 238.79,-658.38 238.79,-658.38 327.46,-658.38 327.46,-658.38 330.67,-658.38 333.88,-661.58 333.88,-664.79 333.88,-664.79 333.88,-671.21 333.88,-671.21 333.88,-674.42 330.67,-677.62 327.46,-677.62"/>
<text text-anchor="start" x="240.38" y="-665.08" font-family="Helvetica,sans-Serif" font-size="9.00">RegionDataValue.js</text>
</a>
</g>
</g>
<!-- lib/Models/FunctionParameters/RegionDataParameter.js&#45;&gt;lib/Models/FunctionParameters/RegionDataValue.js -->
<g id="edge14" class="edge">
<title>lib/Models/FunctionParameters/RegionDataParameter.js&#45;&gt;lib/Models/FunctionParameters/RegionDataValue.js</title>
<path fill="none" stroke="#000000" stroke-width="2" stroke-opacity="0.200000" d="M177.86,-668C192.64,-668 208.41,-668 223.1,-668"/>
<polygon fill="#000000" fill-opacity="0.200000" stroke="#000000" stroke-width="2" stroke-opacity="0.200000" points="223.05,-670.1 229.05,-668 223.05,-665.9 223.05,-670.1"/>
</g>
<!-- lib/Models/FunctionParameters/createParameterFromType.js -->
<g id="node26" class="node">
<title>lib/Models/FunctionParameters/createParameterFromType.js</title>
<g id="a_node26"><a xlink:href="lib/Models/FunctionParameters/createParameterFromType.js" xlink:title="createParameterFromType.js">
<path fill="#ffffcc" stroke="black" d="M181.08,-646.62C181.08,-646.62 50.42,-646.62 50.42,-646.62 47.21,-646.62 44,-643.42 44,-640.21 44,-640.21 44,-633.79 44,-633.79 44,-630.58 47.21,-627.38 50.42,-627.38 50.42,-627.38 181.08,-627.38 181.08,-627.38 184.29,-627.38 187.5,-630.58 187.5,-633.79 187.5,-633.79 187.5,-640.21 187.5,-640.21 187.5,-643.42 184.29,-646.62 181.08,-646.62"/>
<text text-anchor="start" x="52" y="-634.08" font-family="Helvetica,sans-Serif" font-size="9.00">createParameterFromType.js</text>
</a>
</g>
</g>
<!-- lib/Models/FunctionParameters/createParameterFromType.js&#45;&gt;../../Core/TerriaError -->
<g id="edge17" class="edge">
<title>lib/Models/FunctionParameters/createParameterFromType.js&#45;&gt;../../Core/TerriaError</title>
<g id="a_edge17"><a xlink:title="not&#45;to&#45;unresolvable">
<path fill="none" stroke="red" stroke-width="2" d="M187.96,-640.33C195.15,-643.03 201.86,-646.8 207.5,-652 218.28,-661.94 209.45,-670.65 215.5,-684 264.21,-791.4 327.58,-790.77 366.75,-902 375.11,-925.74 360.51,-994.24 374.75,-1015 381.25,-1024.47 391.43,-1031.13 401.87,-1035.77"/>
<polygon fill="red" stroke="red" stroke-width="2" points="401.07,-1037.71 407.42,-1037.96 402.61,-1033.8 401.07,-1037.71"/>
</a>
</g>
<text text-anchor="middle" x="277.87" y="-812.32" font-family="Helvetica,sans-Serif" font-size="9.00" fill="red">not&#45;to&#45;unresolvable</text>
</g>
<!-- lib/Models/FunctionParameters/createParameterFromType.js&#45;&gt;./BooleanParameter -->
<g id="edge18" class="edge">
<title>lib/Models/FunctionParameters/createParameterFromType.js&#45;&gt;./BooleanParameter</title>
<g id="a_edge18"><a xlink:title="not&#45;to&#45;unresolvable">
<path fill="none" stroke="red" stroke-width="2" d="M187.74,-636.14C195.25,-633.29 202.1,-629.08 207.5,-623 224.19,-604.22 197.42,-414.45 215.5,-397 239.68,-373.66 336.74,-381.87 366.75,-397 400.61,-414.07 422.83,-454.76 433.45,-478.64"/>
<polygon fill="red" stroke="red" stroke-width="2" points="431.49,-479.4 435.77,-484.1 435.36,-477.76 431.49,-479.4"/>
</a>
</g>
<text text-anchor="middle" x="169.2" y="-555.33" font-family="Helvetica,sans-Serif" font-size="9.00" fill="red">not&#45;to&#45;unresolvable</text>
</g>
<!-- lib/Models/FunctionParameters/createParameterFromType.js&#45;&gt;./DateTimeParameter -->
<g id="edge20" class="edge">
<title>lib/Models/FunctionParameters/createParameterFromType.js&#45;&gt;./DateTimeParameter</title>
<g id="a_edge20"><a xlink:title="not&#45;to&#45;unresolvable">
<path fill="none" stroke="red" stroke-width="2" d="M187.78,-636.17C195.28,-633.32 202.12,-629.1 207.5,-623 228.39,-599.33 195.44,-363.37 215.5,-339 217.58,-336.47 219.99,-334.31 222.63,-332.48"/>
<polygon fill="red" stroke="red" stroke-width="2" points="223.23,-334.55 227.45,-329.8 221.18,-330.88 223.23,-334.55"/>
</a>
</g>
<text text-anchor="middle" x="167.97" y="-473.47" font-family="Helvetica,sans-Serif" font-size="9.00" fill="red">not&#45;to&#45;unresolvable</text>
</g>
<!-- lib/Models/FunctionParameters/createParameterFromType.js&#45;&gt;./EnumerationParameter -->
<g id="edge21" class="edge">
<title>lib/Models/FunctionParameters/createParameterFromType.js&#45;&gt;./EnumerationParameter</title>
<g id="a_edge21"><a xlink:title="not&#45;to&#45;unresolvable">
<path fill="none" stroke="red" stroke-width="2" d="M187.8,-636.19C195.3,-633.33 202.13,-629.1 207.5,-623 230.63,-596.71 193.29,-335.06 215.5,-308 215.62,-307.85 215.75,-307.7 215.87,-307.56"/>
<polygon fill="red" stroke="red" stroke-width="2" points="216.92,-309.44 219.93,-303.84 214.08,-306.35 216.92,-309.44"/>
</a>
</g>
<text text-anchor="middle" x="168.12" y="-460.2" font-family="Helvetica,sans-Serif" font-size="9.00" fill="red">not&#45;to&#45;unresolvable</text>
</g>
<!-- lib/Models/FunctionParameters/createParameterFromType.js&#45;&gt;./LineParameter -->
<g id="edge22" class="edge">
<title>lib/Models/FunctionParameters/createParameterFromType.js&#45;&gt;./LineParameter</title>
<g id="a_edge22"><a xlink:title="not&#45;to&#45;unresolvable">
<path fill="none" stroke="red" stroke-width="2" d="M187.81,-636.2C195.31,-633.34 202.14,-629.11 207.5,-623 220.18,-608.55 203.32,-291.88 215.5,-277 220.25,-271.2 226.72,-267.35 233.77,-264.84"/>
<polygon fill="red" stroke="red" stroke-width="2" points="234.12,-266.92 239.33,-263.29 232.99,-262.88 234.12,-266.92"/>
</a>
</g>
<text text-anchor="middle" x="167.8" y="-440.64" font-family="Helvetica,sans-Serif" font-size="9.00" fill="red">not&#45;to&#45;unresolvable</text>
</g>
<!-- lib/Models/FunctionParameters/createParameterFromType.js&#45;&gt;./PointParameter -->
<g id="edge23" class="edge">
<title>lib/Models/FunctionParameters/createParameterFromType.js&#45;&gt;./PointParameter</title>
<g id="a_edge23"><a xlink:title="not&#45;to&#45;unresolvable">
<path fill="none" stroke="red" stroke-width="2" d="M187.84,-636.22C195.33,-633.36 202.15,-629.12 207.5,-623 223.08,-605.18 201.06,-215.76 215.5,-197 219.78,-191.44 225.57,-187.42 231.96,-184.54"/>
<polygon fill="red" stroke="red" stroke-width="2" points="232.57,-186.56 237.47,-182.51 231.11,-182.62 232.57,-186.56"/>
</a>
</g>
<text text-anchor="middle" x="168.02" y="-400.01" font-family="Helvetica,sans-Serif" font-size="9.00" fill="red">not&#45;to&#45;unresolvable</text>
</g>
<!-- lib/Models/FunctionParameters/createParameterFromType.js&#45;&gt;./PolygonParameter -->
<g id="edge24" class="edge">
<title>lib/Models/FunctionParameters/createParameterFromType.js&#45;&gt;./PolygonParameter</title>
<g id="a_edge24"><a xlink:title="not&#45;to&#45;unresolvable">
<path fill="none" stroke="red" stroke-width="2" d="M187.85,-636.23C195.34,-633.37 202.15,-629.13 207.5,-623 224.34,-603.7 199.33,-181.86 215.5,-162 218.42,-158.41 222,-155.57 225.96,-153.33"/>
<polygon fill="red" stroke="red" stroke-width="2" points="226.62,-155.34 231.23,-150.97 224.9,-151.51 226.62,-155.34"/>
</a>
</g>
<text text-anchor="middle" x="167.88" y="-384.48" font-family="Helvetica,sans-Serif" font-size="9.00" fill="red">not&#45;to&#45;unresolvable</text>
</g>
<!-- lib/Models/FunctionParameters/createParameterFromType.js&#45;&gt;./RectangleParameter -->
<g id="edge25" class="edge">
<title>lib/Models/FunctionParameters/createParameterFromType.js&#45;&gt;./RectangleParameter</title>
<g id="a_edge25"><a xlink:title="not&#45;to&#45;unresolvable">
<path fill="none" stroke="red" stroke-width="2" d="M187.85,-636.24C195.34,-633.37 202.16,-629.13 207.5,-623 225.46,-602.39 198.25,-152.21 215.5,-131 217.33,-128.75 219.43,-126.79 221.71,-125.09"/>
<polygon fill="red" stroke="red" stroke-width="2" points="222.38,-127.13 226.47,-122.26 220.24,-123.51 222.38,-127.13"/>
</a>
</g>
<text text-anchor="middle" x="167.91" y="-369.71" font-family="Helvetica,sans-Serif" font-size="9.00" fill="red">not&#45;to&#45;unresolvable</text>
</g>
<!-- lib/Models/FunctionParameters/createParameterFromType.js&#45;&gt;./StringParameter -->
<g id="edge26" class="edge">
<title>lib/Models/FunctionParameters/createParameterFromType.js&#45;&gt;./StringParameter</title>
<g id="a_edge26"><a xlink:title="not&#45;to&#45;unresolvable">
<path fill="none" stroke="red" stroke-width="2" d="M187.76,-636.15C195.26,-633.3 202.11,-629.09 207.5,-623 225.85,-602.28 198.47,-395.82 215.5,-374 219.23,-369.22 224.07,-365.59 229.44,-362.83"/>
<polygon fill="red" stroke="red" stroke-width="2" points="230.12,-364.83 234.84,-360.57 228.49,-360.96 230.12,-364.83"/>
</a>
</g>
<text text-anchor="middle" x="168.08" y="-489.36" font-family="Helvetica,sans-Serif" font-size="9.00" fill="red">not&#45;to&#45;unresolvable</text>
</g>
<!-- lib/Models/FunctionParameters/createParameterFromType.js&#45;&gt;node_modules/terriajs&#45;cesium -->
<g id="edge28" class="edge">
<title>lib/Models/FunctionParameters/createParameterFromType.js&#45;&gt;node_modules/terriajs&#45;cesium</title>
<path fill="none" stroke="#000000" stroke-opacity="0.200000" d="M187.82,-636.21C195.32,-633.35 202.14,-629.12 207.5,-623 221.31,-607.24 200.53,-260.66 215.5,-246 263.53,-198.97 302.92,-224.93 366.75,-246 498.6,-289.53 512.6,-341.33 617.75,-432 621.56,-435.28 621.45,-437.4 625.75,-440 626.83,-440.65 627.94,-441.28 629.07,-441.88"/>
<polygon fill="#000000" fill-opacity="0.200000" stroke="#000000" stroke-opacity="0.200000" points="628.09,-443.74 634.41,-444.41 629.89,-439.94 628.09,-443.74"/>
</g>
<!-- lib/Models/FunctionParameters/createParameterFromType.js&#45;&gt;node_modules/i18next -->
<g id="edge27" class="edge">
<title>lib/Models/FunctionParameters/createParameterFromType.js&#45;&gt;node_modules/i18next</title>
<path fill="none" stroke="#000000" stroke-opacity="0.200000" d="M187.83,-636.22C195.32,-633.36 202.15,-629.12 207.5,-623 222.32,-606.06 199.43,-233.76 215.5,-218 260.98,-173.41 444.13,-216.83 500.75,-246 577.57,-285.57 640.19,-372.36 663.72,-408.12"/>
<polygon fill="#000000" fill-opacity="0.200000" stroke="#000000" stroke-opacity="0.200000" points="661.8,-409.02 666.83,-412.91 665.32,-406.73 661.8,-409.02"/>
</g>
<!-- lib/Models/FunctionParameters/createParameterFromType.js&#45;&gt;lib/Models/FunctionParameters/BooleanParameterGroup.js -->
<g id="edge19" class="edge">
<title>lib/Models/FunctionParameters/createParameterFromType.js&#45;&gt;lib/Models/FunctionParameters/BooleanParameterGroup.js</title>
<path fill="none" stroke="#000000" stroke-width="2" stroke-opacity="0.200000" d="M187.84,-637C193.9,-637 200.04,-637 206.14,-637"/>
<polygon fill="#000000" fill-opacity="0.200000" stroke="#000000" stroke-width="2" stroke-opacity="0.200000" points="205.99,-639.1 211.99,-637 205.99,-634.9 205.99,-639.1"/>
</g>
<!-- lib/Models/getToken.js -->
<g id="node27" class="node">
<title>lib/Models/getToken.js</title>
<g id="a_node27"><a xlink:href="lib/Models/getToken.js" xlink:title="getToken.js">
<path fill="#ffffcc" stroke="black" d="M142.46,-795.62C142.46,-795.62 89.04,-795.62 89.04,-795.62 85.83,-795.62 82.62,-792.42 82.62,-789.21 82.62,-789.21 82.62,-782.79 82.62,-782.79 82.62,-779.58 85.83,-776.38 89.04,-776.38 89.04,-776.38 142.46,-776.38 142.46,-776.38 145.67,-776.38 148.88,-779.58 148.88,-782.79 148.88,-782.79 148.88,-789.21 148.88,-789.21 148.88,-792.42 145.67,-795.62 142.46,-795.62"/>
<text text-anchor="start" x="90.62" y="-783.08" font-family="Helvetica,sans-Serif" font-size="9.00">getToken.js</text>
</a>
</g>
</g>
<!-- lib/Models/getToken.js&#45;&gt;../Core/TerriaError -->
<g id="edge30" class="edge">
<title>lib/Models/getToken.js&#45;&gt;../Core/TerriaError</title>
<g id="a_edge30"><a xlink:title="not&#45;to&#45;unresolvable">
<path fill="none" stroke="red" stroke-width="2" d="M149.34,-787.5C167.13,-789.27 189.2,-793.03 207.5,-801 289.49,-836.71 319.02,-848.37 366.75,-924 375.73,-938.23 362.83,-949.13 374.75,-961 381.8,-968.03 391.45,-971.93 401.18,-974.01"/>
<polygon fill="red" stroke="red" stroke-width="2" points="400.83,-976.08 407.09,-974.96 401.5,-971.93 400.83,-976.08"/>
</a>
</g>
<text text-anchor="middle" x="259.39" y="-841.38" font-family="Helvetica,sans-Serif" font-size="9.00" fill="red">not&#45;to&#45;unresolvable</text>
</g>
<!-- lib/Models/getToken.js&#45;&gt;lib/Core/loadWithXhr.js -->
<g id="edge29" class="edge">
<title>lib/Models/getToken.js&#45;&gt;lib/Core/loadWithXhr.js</title>
<path fill="none" stroke="#000000" stroke-width="2" stroke-opacity="0.200000" d="M149.23,-781.37C166.59,-778.71 188.29,-775.09 207.5,-771 274.42,-756.75 350.98,-735.83 397.59,-722.56"/>
<polygon fill="#000000" fill-opacity="0.200000" stroke="#000000" stroke-width="2" stroke-opacity="0.200000" points="398.11,-724.6 403.3,-720.93 396.96,-720.56 398.11,-724.6"/>
</g>
<!-- lib/Models/getToken.js&#45;&gt;node_modules/terriajs&#45;cesium -->
<g id="edge32" class="edge">
<title>lib/Models/getToken.js&#45;&gt;node_modules/terriajs&#45;cesium</title>
<path fill="none" stroke="#000000" stroke-opacity="0.200000" d="M149.26,-789.93C169.09,-790.36 193.29,-787 207.5,-771 220.57,-756.28 202.7,-608.96 215.5,-594 299.6,-495.69 378.92,-579.53 500.75,-536 559.91,-514.86 567.75,-494.14 625.75,-470 627.85,-469.13 630.01,-468.28 632.21,-467.46"/>
<polygon fill="#000000" fill-opacity="0.200000" stroke="#000000" stroke-opacity="0.200000" points="632.5,-469.58 637.45,-465.58 631.09,-465.63 632.5,-469.58"/>
</g>
<!-- lib/Models/getToken.js&#45;&gt;node_modules/i18next -->
<g id="edge31" class="edge">
<title>lib/Models/getToken.js&#45;&gt;node_modules/i18next</title>
<path fill="none" stroke="#000000" stroke-opacity="0.200000" d="M149.31,-789.98C169.17,-790.43 193.38,-787.08 207.5,-771 224.38,-751.79 198,-559.64 215.5,-541 259.1,-494.56 455.72,-558.05 500.75,-513 521.74,-492 491.75,-399.95 513.75,-380 547.99,-348.95 574.07,-364.89 617.75,-380 634.27,-385.71 649.62,-398.53 660.06,-408.87"/>
<polygon fill="#000000" fill-opacity="0.200000" stroke="#000000" stroke-opacity="0.200000" points="658.3,-410.08 663.99,-412.91 661.31,-407.15 658.3,-410.08"/>
</g>
<!-- lib/Models/markerIcon.js -->
<g id="node28" class="node">
<title>lib/Models/markerIcon.js</title>
<g id="a_node28"><a xlink:href="lib/Models/markerIcon.js" xlink:title="markerIcon.js">
<path fill="#ffffcc" stroke="black" d="M148.08,-610.62C148.08,-610.62 83.42,-610.62 83.42,-610.62 80.21,-610.62 77,-607.42 77,-604.21 77,-604.21 77,-597.79 77,-597.79 77,-594.58 80.21,-591.38 83.42,-591.38 83.42,-591.38 148.08,-591.38 148.08,-591.38 151.29,-591.38 154.5,-594.58 154.5,-597.79 154.5,-597.79 154.5,-604.21 154.5,-604.21 154.5,-607.42 151.29,-610.62 148.08,-610.62"/>
<text text-anchor="start" x="85" y="-598.08" font-family="Helvetica,sans-Serif" font-size="9.00">markerIcon.js</text>
</a>
</g>
</g>
<!-- wwwroot/images/map&#45;pin.png -->
<g id="node29" class="node">
<title>wwwroot/images/map&#45;pin.png</title>
<g id="a_node29"><a xlink:href="wwwroot/images/map-pin.png" xlink:title="map&#45;pin.png">
<path fill="#ffffcc" stroke="black" d="M313.96,-43.62C313.96,-43.62 252.29,-43.62 252.29,-43.62 249.08,-43.62 245.88,-40.42 245.88,-37.21 245.88,-37.21 245.88,-30.79 245.88,-30.79 245.88,-27.58 249.08,-24.38 252.29,-24.38 252.29,-24.38 313.96,-24.38 313.96,-24.38 317.17,-24.38 320.38,-27.58 320.38,-30.79 320.38,-30.79 320.38,-37.21 320.38,-37.21 320.38,-40.42 317.17,-43.62 313.96,-43.62"/>
<text text-anchor="start" x="253.88" y="-31.07" font-family="Helvetica,sans-Serif" font-size="9.00">map&#45;pin.png</text>
</a>
</g>
</g>
<!-- lib/Models/markerIcon.js&#45;&gt;wwwroot/images/map&#45;pin.png -->
<g id="edge33" class="edge">
<title>lib/Models/markerIcon.js&#45;&gt;wwwroot/images/map&#45;pin.png</title>
<path fill="none" stroke="#000000" stroke-width="2" stroke-opacity="0.200000" d="M116.61,-591.08C116.25,-537.5 119.74,-278.51 215.5,-100 226.41,-79.66 245.68,-61.6 260.69,-49.54"/>
<polygon fill="#000000" fill-opacity="0.200000" stroke="#000000" stroke-width="2" stroke-opacity="0.200000" points="261.83,-51.31 265.28,-45.97 259.25,-48 261.83,-51.31"/>
</g>
</g>
</svg>
